<?xml version="1.0" standalone="no"?>
<!DOCTYPE svg PUBLIC "-//W3C//DTD SVG 20010904//EN"
 "http://www.w3.org/TR/2001/REC-SVG-20010904/DTD/svg10.dtd">
<svg version="1.0" xmlns="http://www.w3.org/2000/svg"
 width="180.000000pt" height="180.000000pt" viewBox="0 0 180.000000 180.000000"
 preserveAspectRatio="xMidYMid meet">
<metadata>
Created by potrace 1.14, written by Peter Selinger 2001-2017
</metadata>
<g transform="translate(0.000000,180.000000) scale(0.100000,-0.100000)"
fill="#000000" stroke="none">
<path d="M138 1691 c-30 -19 -52 -44 -67 -73 -21 -45 -21 -45 -19 -740 l3
-694 28 -42 c15 -23 45 -51 67 -62 39 -20 52 -20 758 -18 l719 3 37 29 c21 16
47 48 57 72 19 41 19 73 17 737 l-3 693 -28 42 c-15 23 -45 51 -67 62 -38 20
-57 20 -748 20 l-708 0 -46 -29z m1436 -81 c14 -5 35 -24 46 -42 20 -32 20
-47 18 -691 l-3 -659 -33 -29 -32 -29 -673 0 c-738 0 -699 -3 -732 60 -13 25
-15 120 -15 663 0 446 3 644 11 666 7 18 26 41 43 52 30 18 60 19 688 19 402
0 667 -4 682 -10z"/>
<path d="M392 1478 c-14 -14 -17 -265 -4 -286 7 -9 44 -12 153 -10 l144 3 3
139 c2 93 -1 143 -9 152 -15 19 -269 20 -287 2z m218 -148 l0 -80 -75 0 -75 0
0 80 0 80 75 0 75 0 0 -80z"/>
<path d="M862 1478 c-16 -16 -15 -43 2 -57 9 -8 89 -11 271 -9 233 3 259 5
269 21 8 12 8 22 0 35 -10 15 -36 17 -270 20 -194 2 -263 -1 -272 -10z"/>
<path d="M862 1278 c-16 -16 -15 -43 2 -57 9 -8 89 -11 271 -9 233 3 259 5
269 21 8 12 8 22 0 35 -10 15 -36 17 -270 20 -194 2 -263 -1 -272 -10z"/>
<path d="M403 1040 c-22 -9 -23 -14 -23 -149 0 -128 2 -141 19 -151 11 -5 72
-10 136 -10 64 0 125 5 136 10 17 10 19 23 19 151 l0 139 -26 10 c-32 12 -231
12 -261 0z m207 -150 l0 -80 -75 0 -75 0 0 80 0 80 75 0 75 0 0 -80z"/>
<path d="M1102 1018 c-6 -6 -12 -20 -12 -29 0 -34 24 -40 165 -37 119 3 139 5
149 21 8 12 8 22 0 35 -10 15 -31 17 -150 20 -100 2 -143 -1 -152 -10z"/>
<path d="M857 848 c-9 -5 -17 -17 -17 -27 0 -24 87 -389 100 -418 14 -33 48
-29 87 9 l33 32 94 -92 c51 -51 99 -92 106 -92 17 0 158 138 166 163 5 15 -14
40 -87 113 l-93 94 32 33 c33 34 41 68 20 84 -7 6 -101 31 -208 57 -107 26
-200 49 -206 51 -5 2 -18 -1 -27 -7z m211 -117 c63 -16 116 -32 119 -35 4 -3
-3 -16 -15 -29 -12 -13 -22 -29 -22 -36 0 -8 41 -55 90 -106 l91 -92 -37 -37
-37 -37 -91 90 c-50 50 -98 91 -106 91 -7 0 -24 -10 -37 -22 -13 -12 -25 -20
-26 -17 -2 2 -16 54 -31 114 -15 61 -29 118 -32 128 -7 23 0 22 134 -12z"/>
<path d="M392 588 c-17 -17 -17 -269 0 -286 17 -17 269 -17 286 0 17 17 17
269 0 286 -17 17 -269 17 -286 0z m218 -143 l0 -75 -75 0 -75 0 0 75 0 75 75
0 75 0 0 -75z"/>
</g>
</svg>
